<?xml version="1.0" encoding="utf-8"?>
<!-- Generator: Adobe Illustrator 16.0.0, SVG Export Plug-In . SVG Version: 6.00 Build 0)  -->
<!DOCTYPE svg PUBLIC "-//W3C//DTD SVG 1.1//EN" "http://www.w3.org/Graphics/SVG/1.1/DTD/svg11.dtd">
<svg version="1.1" id="Layer_1" xmlns="http://www.w3.org/2000/svg" xmlns:xlink="http://www.w3.org/1999/xlink" x="0px" y="0px"
	 width="130px" height="100px" viewBox="0 0 130 100" enable-background="new 0 0 130 100" xml:space="preserve">
<g id="Book-icon">
	<path fill="#DFDEE4" d="M107.893,82.886H16.869c-3.102,0-5.617-2.515-5.617-5.616V18.921c0-3.103,2.515-5.618,5.617-5.618h91.023
		c3.102,0,5.616,2.516,5.616,5.618V77.27C113.509,80.371,110.994,82.886,107.893,82.886z"/>
	<g>
		<path fill="#E8F9FC" d="M6.672,4.898h17.162l7.261,10.312h73.058v54.603c0,2.577-2.09,4.667-4.668,4.667H6.672V4.898z"/>
		<g>
			<path fill="#464E72" d="M26.223,5.523l7.26,10.312h73.058v-5.645c0-2.578-2.09-4.668-4.668-4.668H26.223z"/>
			<path fill="none" stroke="#464E72" stroke-width="3" stroke-miterlimit="10" d="M100.924,75.105H9.901
				c-3.103,0-5.617-2.515-5.617-5.616V11.141c0-3.103,2.515-5.617,5.617-5.617h91.022c3.102,0,5.617,2.515,5.617,5.617v58.349
				C106.541,72.591,104.025,75.105,100.924,75.105z"/>
			<polyline fill="none" stroke="#464E72" stroke-width="3" stroke-miterlimit="10" points="26.223,5.523 33.483,15.836 
				106.541,15.836 			"/>
			<circle fill="#DFDEE4" cx="82.175" cy="10.68" r="1.583"/>
			<circle fill="#DFDEE4" cx="90.468" cy="10.68" r="1.583"/>
			<circle fill="#DFDEE4" cx="98.761" cy="10.68" r="1.583"/>
			<path fill="none" stroke="#464E72" stroke-width="3" stroke-miterlimit="10" d="M65.812,63.959"/>
			<path fill="none" stroke="#464E72" stroke-width="3" stroke-miterlimit="10" d="M35.721,63.959"/>
		</g>
		<g>
			<defs>
				<circle id="SVGID_1_" cx="24.4" cy="43.5" r="10"/>
			</defs>
			<clipPath id="SVGID_2_">
				<use xlink:href="#SVGID_1_"  overflow="visible"/>
			</clipPath>
			<path clip-path="url(#SVGID_2_)" fill="#52504B" d="M32.281,49.508c-0.891-0.43-2.483-1.204-2.943-1.419
				c-0.461-0.215-1.717-0.863-1.717-0.863s-0.06-1.046-0.428-1.106l0.062-0.707c0,0,0.43-0.982,0.43-1.597
				c0,0,0.431,0.367,0.583-0.461c0.154-0.828,0.369-2.363-0.307-1.995c0,0,0.138-1.228,0.016-1.965
				c-0.124-0.736-0.752-3.009-3.576-3.009s-3.453,2.272-3.576,3.009c-0.123,0.737,0.016,1.965,0.016,1.965
				c-0.675-0.368-0.46,1.167-0.307,1.995s0.584,0.461,0.584,0.461c0,0.614,0.43,1.597,0.43,1.597l0.062,0.707
				c-0.368,0.061-0.428,1.106-0.428,1.106s-1.256,0.648-1.717,0.863c-0.46,0.215-2.052,0.989-2.943,1.419
				c-0.89,0.43-0.974,3.144-0.974,3.144l8.855,1.211l8.855-1.211C33.255,52.651,33.171,49.938,32.281,49.508z"/>
			<use xlink:href="#SVGID_1_"  overflow="visible" fill="none" stroke="#514F4A" stroke-width="0.5" stroke-miterlimit="10"/>
		</g>
		<g>
			<defs>
				<circle id="SVGID_3_" cx="87.4" cy="43.5" r="10"/>
			</defs>
			<clipPath id="SVGID_4_">
				<use xlink:href="#SVGID_3_"  overflow="visible"/>
			</clipPath>
			<path clip-path="url(#SVGID_4_)" fill="#52504B" d="M91.651,48.355c-0.728-0.243-1.174-0.381-1.884-0.63
				C89.365,47.585,89.199,47,89.143,47h3.641c-0.746-2,0.244-6.403,0-8.163c-0.362-2.608-3.064-4.202-4.949-3.984
				c-1.607,0.186-2.423,1.542-2.627,1.935c-0.122,0.104-0.24,0.224-0.357,0.342c-0.451-0.101-1.21-0.117-1.725,0.956
				C81.699,41.056,83.246,45,82.541,47h3.096c-0.061,0-0.223,0.585-0.604,0.726c-0.707,0.261-1.157,0.362-1.885,0.604
				c-1.305,0.435-2.184,0.434-2.946,1.801c-0.751,1.344-1.305,4.604-1.305,4.604l8.503,0.139l8.502-0.135
				c0,0-0.553-3.251-1.305-4.597C93.836,48.776,92.955,48.79,91.651,48.355z"/>
			<use xlink:href="#SVGID_3_"  overflow="visible" fill="none" stroke="#514F4A" stroke-width="0.5" stroke-miterlimit="10"/>
		</g>
		<g>
			<circle fill="#5FDCF9" cx="56" cy="43.125" r="16"/>
			<path fill="#4D4D4D" d="M56,28.125c-8.271,0-15,6.729-15,15s6.729,15,15,15s15-6.729,15-15S64.271,28.125,56,28.125z
				 M56.714,43.739c-0.312-0.056-0.631-0.067-0.893,0.014c-0.004,0.001-0.009,0.003-0.014,0.004c-0.655-0.101-1.569,0.2-2.037,0.597
				c-0.213,0.18-0.72,0.944-0.964,0.889c-0.559-0.126-1.327-0.716-1.519-1.283C51,41.617,51.045,39.328,51.4,36.978
				c1.161,0.482,2.822,0.189,3.985,0.075c0.806-0.079,1.648-0.272,2.423-0.6c0.59,1.286,1.867,2.118,3.316,2.201
				c0.154,1.75,0.13,3.479-0.081,5.237c-0.006,0.012-0.014,0.021-0.019,0.035c-0.172,0.577-0.964,1.187-1.533,1.315
				c-0.244,0.056-0.75-0.709-0.964-0.889C58.112,44,57.341,43.725,56.714,43.739z M57.699,45.633
				c-0.74,0.094-1.481,0.049-2.223,0.034c-0.016,0.005-0.03,0.011-0.049,0.011c-0.223-0.003-0.443-0.022-0.662-0.066
				c-0.237-0.047-0.136-0.407,0.1-0.36c0.116,0.022,0.231,0.034,0.348,0.042c0.009-0.002,0.016-0.006,0.026-0.006
				c0.822,0.006,1.642,0.075,2.461-0.029C57.938,45.228,57.935,45.604,57.699,45.633z M53.673,51.96
				c0.147-0.786,0.194-1.612,0.27-2.417c0.645,0.322,1.35,0.498,2.13,0.586c0.024,0.011,0.052,0.017,0.085,0.014
				c0.002,0,0.003-0.002,0.004-0.002c0.001,0,0.002,0.002,0.004,0.002c0.033,0.003,0.062-0.003,0.085-0.014
				c0.807-0.09,1.536-0.273,2.198-0.618c0.077,0.814,0.124,1.652,0.272,2.449c0.252,1.341-1.576,1.611-2.524,1.767
				C55.25,53.571,53.421,53.301,53.673,51.96z M65.718,53.535c-0.235-0.374-0.47-0.748-0.7-1.124
				c-0.121-0.197-0.307-0.627-0.533-0.751c-1.701-0.931-3.861-0.853-5.602-1.679c-0.008-0.003-0.016-0.003-0.024-0.006
				c-0.017-0.228-0.033-0.454-0.056-0.673c0.315-0.2,0.616-0.439,0.9-0.735c0.834-0.87,1.115-1.792,1.449-2.916
				c0.18-0.609,0.302-1.276,0.379-1.957c0.333,0.079,0.707-0.017,0.829-0.394c0.094-0.286,0.078-0.6,0.065-0.898
				c-0.02-0.478,0.236-0.918,0.309-1.386c0.063-0.413,0.119-1.242-0.321-1.503c-0.016-0.009-0.031-0.015-0.046-0.021
				c-0.146-2.056,0.934-7.259-2.365-7.021c-0.187-0.718-1.124-1.229-1.742-1.441c-1.227-0.419-2.497-0.468-3.771-0.316
				c-0.782,0.094-1.699,0.54-2.235,1.109c-0.384,0.409-0.852,0.823-1.317,1.138c-0.334,0.228-0.874,0.229-1.083,0.572
				c-0.032,0.052-0.038,0.137,0,0.188c0.106,0.146,0.226,0.265,0.378,0.37c0.219,0.154-0.74,0.284-0.913,0.338
				c-0.088,0.028-0.171,0.134-0.131,0.23c0.137,0.333,0.437,0.564,0.766,0.697c-0.208,0.167-0.497,0.228-0.681,0.425
				c-0.074,0.079-0.077,0.243,0.038,0.294c0.049,0.021,0.707,0.317,0.732,0.216c-0.086,0.346-0.086,0.75-0.126,1.107
				c-0.054,0.481-0.065,0.961-0.066,1.447c0,0.093,0.016,0.733,0.049,0.655c-0.01,0.023-0.012,0.044-0.014,0.066
				c-0.365,0.304-0.317,1.059-0.257,1.448c0.072,0.468,0.329,0.908,0.309,1.386c-0.012,0.299-0.029,0.612,0.065,0.898
				c0.118,0.362,0.467,0.467,0.79,0.405c0.078,0.677,0.199,1.34,0.378,1.945c0.334,1.124,0.615,2.046,1.449,2.916
				c0.303,0.317,0.627,0.569,0.966,0.778c-0.02,0.2-0.036,0.407-0.051,0.617c-0.026,0-0.054,0.006-0.082,0.019
				c-1.74,0.826-3.9,0.748-5.602,1.679c-0.226,0.124-0.411,0.554-0.532,0.751c-0.271,0.442-0.548,0.881-0.824,1.321
				c-2.912-2.61-4.747-6.398-4.747-10.607c0-7.858,6.393-14.251,14.25-14.251s14.25,6.393,14.25,14.251
				C70.25,47.229,68.504,50.932,65.718,53.535z M61.625,40.863c-0.014-0.305-0.029-0.604-0.045-0.903
				c0.031-0.013,0.06-0.032,0.083-0.063c0.139-0.191,0.258-0.23,0.357-0.183c0.021,0.034,0.053,0.059,0.091,0.075
				c0.217,0.249,0.309,0.938,0.263,1.128c-0.069,0.281-0.143,0.556-0.226,0.832c-0.077,0.253-0.017,1.723-0.576,1.569
				C61.648,42.48,61.659,41.636,61.625,40.863z M50.752,43.323c-0.515,0.071-0.461-1.328-0.536-1.574
				c-0.084-0.276-0.158-0.551-0.226-0.832c-0.07-0.289,0.179-1.753,0.711-1.021c0.013,0.018,0.028,0.029,0.043,0.04
				c-0.016,0.307-0.031,0.614-0.045,0.927C50.666,41.637,50.676,42.485,50.752,43.323z"/>
		</g>
		<path id="XMLID_23_" fill="#FFFFFF" stroke="#464E72" stroke-miterlimit="10" d="M56.564,87.315c0,0-2.319-4.022-3.884-7.007
			c-1.569-2.993-1.094-3.372,0.016-3.869c0.664-0.297,1.984,1.164,2.625,1.944c0.124,0.151,0.075,0.062,0.075-0.134v-9.803
			c0-0.625,0.532-1.132,1.408-1.132l0,0c0.625,0,1.147,0.507,1.147,1.132v4.927l0.433-0.433c0.331-0.331,0.779-0.517,1.246-0.517
			l0,0c0.467,0,0.916,0.186,1.246,0.517l0,0c0.184,0.184,0.287,0.432,0.287,0.691v0.909l0.343-0.343
			c0.248-0.248,0.584-0.388,0.935-0.388l0,0c0.351,0,0.687,0.14,0.935,0.388l0,0c0.266,0.266,0.416,0.627,0.416,1.004v1.163
			l0.244-0.244c0.265-0.264,0.623-0.412,0.997-0.412l0,0c0.374,0,0.732,0.148,0.996,0.412l0,0c0.227,0.227,0.354,0.534,0.354,0.854
			v5.724c0,0.779-0.182,1.549-0.53,2.246l-1.186,2.37H56.564z"/>
		<g id="XMLID_181_">
			
				<circle id="XMLID_164_" fill="#489ED8" stroke="#464E72" stroke-width="2" stroke-miterlimit="10" cx="104.152" cy="75.104" r="21.92"/>
			
				<circle id="XMLID_165_" fill="#E8F9FC" stroke="#464E72" stroke-width="2" stroke-linecap="round" stroke-linejoin="round" stroke-miterlimit="10" cx="104.152" cy="75.104" r="17.125"/>
			<g id="XMLID_166_">
				
					<line id="XMLID_167_" fill="none" stroke="#464E72" stroke-width="2" stroke-miterlimit="10" x1="104.152" y1="57.98" x2="104.152" y2="61.96"/>
				
					<line id="XMLID_168_" fill="none" stroke="#464E72" stroke-width="2" stroke-miterlimit="10" x1="95.59" y1="60.274" x2="97.58" y2="63.722"/>
				
					<line id="XMLID_169_" fill="none" stroke="#464E72" stroke-width="2" stroke-miterlimit="10" x1="89.322" y1="66.543" x2="92.77" y2="68.532"/>
				
					<line id="XMLID_170_" fill="none" stroke="#464E72" stroke-width="2" stroke-miterlimit="10" x1="87.027" y1="75.104" x2="91.01" y2="75.104"/>
				
					<line id="XMLID_171_" fill="none" stroke="#464E72" stroke-width="2" stroke-miterlimit="10" x1="89.322" y1="83.667" x2="92.77" y2="81.676"/>
				
					<line id="XMLID_172_" fill="none" stroke="#464E72" stroke-width="2" stroke-miterlimit="10" x1="95.59" y1="89.936" x2="97.58" y2="86.487"/>
				
					<line id="XMLID_173_" fill="none" stroke="#464E72" stroke-width="2" stroke-miterlimit="10" x1="104.152" y1="92.229" x2="104.152" y2="88.248"/>
				
					<line id="XMLID_174_" fill="none" stroke="#464E72" stroke-width="2" stroke-miterlimit="10" x1="112.715" y1="89.936" x2="110.723" y2="86.487"/>
				
					<line id="XMLID_175_" fill="none" stroke="#464E72" stroke-width="2" stroke-miterlimit="10" x1="118.984" y1="83.667" x2="115.535" y2="81.676"/>
				
					<line id="XMLID_176_" fill="none" stroke="#464E72" stroke-width="2" stroke-miterlimit="10" x1="121.277" y1="75.104" x2="117.295" y2="75.104"/>
				
					<line id="XMLID_177_" fill="none" stroke="#464E72" stroke-width="2" stroke-miterlimit="10" x1="118.984" y1="66.543" x2="115.535" y2="68.532"/>
				
					<line id="XMLID_178_" fill="none" stroke="#464E72" stroke-width="2" stroke-miterlimit="10" x1="112.715" y1="60.274" x2="110.723" y2="63.722"/>
			</g>
			<g id="XMLID_179_">
				
					<line id="XMLID_180_" fill="none" stroke="#464E72" stroke-width="2" stroke-linecap="round" stroke-linejoin="round" stroke-miterlimit="10" x1="104.152" y1="75.104" x2="104.152" y2="64.495"/>
				
					<polyline id="XMLID_182_" fill="none" stroke="#464E72" stroke-width="2" stroke-linecap="round" stroke-linejoin="round" stroke-miterlimit="10" points="
					106.594,67.537 104.152,64.179 101.709,67.537 				"/>
			</g>
			<g id="XMLID_183_">
				
					<line id="XMLID_185_" fill="none" stroke="#464E72" stroke-width="2" stroke-linecap="round" stroke-linejoin="round" stroke-miterlimit="10" x1="104.152" y1="75.104" x2="112.471" y2="75.104"/>
				
					<polyline id="XMLID_186_" fill="none" stroke="#464E72" stroke-width="2" stroke-linecap="round" stroke-linejoin="round" stroke-miterlimit="10" points="
					109.457,72.662 112.816,75.104 109.457,77.546 				"/>
			</g>
		</g>
	</g>
	<rect x="43" y="63" fill="#489ED8" width="27" height="6"/>
</g>
</svg>
