<?xml version="1.0" encoding="utf-8"?>
<!-- Generator: Adobe Illustrator 16.0.0, SVG Export Plug-In . SVG Version: 6.00 Build 0)  -->
<!DOCTYPE svg PUBLIC "-//W3C//DTD SVG 1.1//EN" "http://www.w3.org/Graphics/SVG/1.1/DTD/svg11.dtd">
<svg version="1.1" id="Layer_1" xmlns="http://www.w3.org/2000/svg" xmlns:xlink="http://www.w3.org/1999/xlink" x="0px" y="0px"
	 width="220px" height="170px" viewBox="0 0 220 170" enable-background="new 0 0 220 170" xml:space="preserve">
<g>
	<g>
		<g>
			<path fill="#FFFFFF" stroke="#464E72" stroke-width="4" stroke-linejoin="round" stroke-miterlimit="10" d="M199,132V11.961
				c0-1.895,0.904-1.961-0.986-1.961H26.775C24.885,10,21,10.066,21,11.961V132"/>
			<polyline fill="#489ED8" points="33,132 33,26 184,26 184,132 			"/>
			<g>
				<path fill="#E6E7E8" stroke="#464E72" stroke-width="4" stroke-linejoin="round" stroke-miterlimit="10" d="M132,132v13H89v-13
					H10v20.372c0,1.891,4.611,7.628,6.502,7.628h191.783c1.893,0,1.715-5.737,1.715-7.628V132H132z"/>
			</g>
		</g>
		
			<line fill="none" stroke="#464E72" stroke-width="4.5" stroke-linejoin="round" stroke-miterlimit="10" x1="81.573" y1="97.576" x2="115.82" y2="63.33"/>
		
			<line fill="none" stroke="#464E72" stroke-width="4.5" stroke-linejoin="round" stroke-miterlimit="10" x1="122.67" y1="56.48" x2="129.518" y2="49.631"/>
		
			<line fill="none" stroke="#464E72" stroke-width="4.5" stroke-linejoin="round" stroke-miterlimit="10" x1="108.969" y1="101.001" x2="160.341" y2="49.631"/>
	</g>
</g>
</svg>
