<?xml version="1.0" encoding="utf-8"?>
<!-- Generator: Adobe Illustrator 16.0.0, SVG Export Plug-In . SVG Version: 6.00 Build 0)  -->
<!DOCTYPE svg PUBLIC "-//W3C//DTD SVG 1.1//EN" "http://www.w3.org/Graphics/SVG/1.1/DTD/svg11.dtd">
<svg version="1.1" id="Layer_1" xmlns="http://www.w3.org/2000/svg" xmlns:xlink="http://www.w3.org/1999/xlink" x="0px" y="0px"
	 width="130px" height="100px" viewBox="0 0 130 100" enable-background="new 0 0 130 100" xml:space="preserve">
<g id="find-icon">
	<path fill="#DFDEE4" d="M98.857,79.27c-3.957-3.957-7.223-8.03-9.562-11.748c-7.54,3.414-16.723,2.025-22.922-4.174
		c-7.869-7.868-7.986-20.546-0.365-28.565c-1.208,0.792-2.346,1.71-3.391,2.756c-8.229,8.229-8.229,21.618,0,29.848
		c3.987,3.986,9.287,6.182,14.924,6.182c2.868,0,5.648-0.571,8.213-1.654c2.422,3.758,5.64,7.686,9.348,11.394
		c8.246,8.245,17.31,13.786,22.556,13.786c0,0,0,0,0.001,0c1.422,0,2.541-0.398,3.328-1.185c0.758-0.759,1.127-1.837,1.151-3.158
		C117.532,93.743,107.891,88.303,98.857,79.27z"/>
	<path fill="#DFDEE4" d="M109.518,86.597H18.495c-3.102,0-5.617-2.515-5.617-5.616V22.632c0-3.103,2.515-5.618,5.617-5.618h91.023
		c3.102,0,5.617,2.516,5.617,5.618V80.98C115.135,84.082,112.619,86.597,109.518,86.597z"/>
	<path fill="#464E72" d="M26.784,10.275l7.26,10.312h73.058v-5.645c0-2.578-2.09-4.668-4.668-4.668H26.784z"/>
	<path fill="#489ED8" d="M9.621,10.275h17.163l7.26,10.312h73.058V75.19c0,2.577-2.09,4.667-4.668,4.667H9.621V10.275z"/>
	<path fill="none" stroke="#464E72" stroke-width="3" stroke-miterlimit="10" d="M101.484,79.857H10.462
		c-3.103,0-5.617-2.515-5.617-5.616V15.893c0-3.103,2.515-5.617,5.617-5.617h91.022c3.102,0,5.617,2.515,5.617,5.617v58.349
		C107.102,77.343,104.586,79.857,101.484,79.857z"/>
	<polyline fill="none" stroke="#464E72" stroke-width="3" stroke-miterlimit="10" points="26.784,10.275 34.044,20.588 
		107.102,20.588 	"/>
	<circle fill="#DFDEE4" cx="82.735" cy="15.432" r="1.583"/>
	<circle fill="#DFDEE4" cx="91.028" cy="15.432" r="1.583"/>
	<circle fill="#DFDEE4" cx="99.321" cy="15.432" r="1.583"/>
	<path fill="#C1ECF7" d="M79.654,55.937H32.292c-4.225,0-7.65-3.426-7.65-7.65l0,0c0-4.226,3.425-7.649,7.65-7.649h47.362
		c4.225,0,7.65,3.424,7.65,7.649l0,0C87.305,52.511,83.879,55.937,79.654,55.937z"/>
	<text transform="matrix(1 0 0 1 36.2808 52.6943)" fill="#464E72" font-family="'MyriadPro-Regular'" font-size="13.5011">A</text>
	<line fill="none" stroke="#464E72" stroke-width="3" stroke-miterlimit="10" x1="48.096" y1="45.929" x2="56.588" y2="45.929"/>
	<line fill="none" stroke="#464E72" stroke-width="3" stroke-miterlimit="10" x1="48.096" y1="51.625" x2="56.588" y2="51.625"/>
	<line fill="none" stroke="#464E72" stroke-width="3" stroke-miterlimit="10" x1="36.282" y1="57.32" x2="57.913" y2="57.32"/>
	<line fill="none" stroke="#464E72" stroke-width="3" stroke-miterlimit="10" x1="36.282" y1="63.016" x2="60.918" y2="63.016"/>
	<line fill="none" stroke="#464E72" stroke-width="3" stroke-miterlimit="10" x1="36.282" y1="68.711" x2="66.373" y2="68.711"/>
	<g>
		<circle opacity="0.5" fill="#FFFFFF" cx="80.848" cy="48.873" r="17.327"/>
		<circle fill="none" stroke="#464E72" stroke-width="3" stroke-miterlimit="10" cx="80.848" cy="48.873" r="20.471"/>
		<path fill="none" stroke="#464E72" stroke-width="3" stroke-linecap="round" stroke-miterlimit="10" d="M95.025,47.711
			c-0.062-1.593-0.397-3.177-1.006-4.676"/>
		<path fill="none" stroke="#464E72" stroke-width="3" stroke-linecap="round" stroke-miterlimit="10" d="M90.974,38.447
			c-5.417-5.416-14.198-5.416-19.614,0"/>
		<path fill="#FFFFFF" d="M124.822,89.506c-0.081,0.981-0.397,1.782-0.979,2.363c-2.232,2.237-7.791,0.602-14.273-3.704
			c-0.995-0.661-2.015-1.386-3.049-2.17c-2.519-1.914-5.114-4.176-7.664-6.726c-3.957-3.957-7.222-8.029-9.561-11.748
			c1.156-0.523,2.279-1.16,3.341-1.913c0.943-0.665,1.84-1.417,2.685-2.262c1.797-1.794,3.187-3.841,4.175-6.028
			c3.718,2.342,7.791,5.606,11.748,9.563c2.558,2.557,4.825,5.16,6.739,7.686c0.784,1.03,1.509,2.051,2.167,3.046
			C123.334,82.408,125.055,86.695,124.822,89.506z"/>
		<path fill="#E0DFE5" d="M124.822,89.506c-4.9,0.71-14.668-4.893-23.826-14.052c-3.29-3.289-6.117-6.655-8.358-9.846
			c0.943-0.665,1.84-1.417,2.685-2.262c1.797-1.794,3.187-3.841,4.175-6.028c3.718,2.342,7.791,5.606,11.748,9.563
			C119.865,75.502,125.22,84.684,124.822,89.506z"/>
		<path fill="none" stroke="#464E72" stroke-width="3" stroke-miterlimit="10" d="M95.323,63.348
			c-1.796,1.795-3.844,3.185-6.028,4.174c2.34,3.718,5.605,7.791,9.562,11.748c10.38,10.38,21.566,16.021,24.988,12.601
			c3.42-3.421-2.222-14.608-12.601-24.987c-3.958-3.957-8.031-7.223-11.748-9.562C98.508,59.504,97.119,61.552,95.323,63.348z"/>
		<g>
			<path fill="#464E72" d="M117.984,74.567c-1.445,2.174-3.152,4.267-5.107,6.222c-1.984,1.984-4.119,3.729-6.355,5.206
				c1.034,0.784,2.054,1.509,3.049,2.17c2.03-1.431,3.972-3.067,5.793-4.889c1.795-1.794,3.391-3.693,4.788-5.663
				C119.493,76.618,118.769,75.598,117.984,74.567z"/>
		</g>
	</g>
</g>
</svg>
