<?xml version="1.0" encoding="utf-8"?>
<!-- Generator: Adobe Illustrator 16.0.0, SVG Export Plug-In . SVG Version: 6.00 Build 0)  -->
<!DOCTYPE svg PUBLIC "-//W3C//DTD SVG 1.1//EN" "http://www.w3.org/Graphics/SVG/1.1/DTD/svg11.dtd">
<svg version="1.1" id="Layer_1" xmlns="http://www.w3.org/2000/svg" xmlns:xlink="http://www.w3.org/1999/xlink" x="0px" y="0px"
	 width="120px" height="90px" viewBox="0 0 120 90" enable-background="new 0 0 120 90" xml:space="preserve">
<g id="learn-icon">
	<path fill="#DFDEE4" d="M111.483,81.73H18.862c-3.158,0-5.717-2.367-5.717-5.286V21.522c0-2.92,2.559-5.288,5.717-5.288h92.621
		c3.158,0,5.715,2.368,6.681,5.288v54.922C117.198,79.363,114.642,81.73,111.483,81.73z"/>
	<path fill="#464E72" d="M104.026,5.713H11.235c-4.451,0-8.071,3.622-8.071,8.072v56.053c0,4.45,3.62,8.072,8.071,8.072h26.239
		l-2.983,3.212H29.98c-1.037,0-1.872,0.837-1.872,1.874c0,1.035,0.835,1.875,1.872,1.875h55.298c1.036,0,1.875-0.84,1.875-1.875
		c0-1.037-0.839-1.874-1.875-1.874H80.77l-2.986-3.212h26.243c4.45,0,8.066-3.622,8.066-8.072V13.785
		C112.093,9.335,108.477,5.713,104.026,5.713z M11.235,9.462h92.792c1.788,0,3.325,1.089,3.982,2.645H7.251
		C7.907,10.552,9.446,9.462,11.235,9.462z M39.605,81.122l2.988-3.212h30.075l2.984,3.212H39.605z M104.026,74.161H11.235
		c-1.789,0-3.328-1.093-3.983-2.646h100.757C107.352,73.068,105.814,74.161,104.026,74.161z M108.346,67.767H6.911V15.855h14.96
		c0,0.006,0,0.015,0,0.021c0.085-0.004,0.167-0.015,0.257-0.015c0.072,0,0.139,0.008,0.211,0.011
		c0.07-0.003,0.136-0.011,0.208-0.011c0.106,0,0.208,0.009,0.311,0.017c0.049-0.002,0.099-0.006,0.149-0.008
		c0.366-0.045,0.755-0.058,1.176-0.017c7.6-0.042,15.451-0.5,23.076,0.001h1.633c0.002,0.013,0.003,0.023,0.006,0.036
		c0.182-0.014,0.365-0.027,0.553-0.027c0.509,0,0.965,0.071,1.401,0.174c0.077,0.008,0.155,0.01,0.233,0.019
		c0.554,0.004,1.109,0.012,1.662,0.02c-0.023-0.072-0.052-0.145-0.068-0.221h3.077v0.256c0.341,0.002,0.681,0.004,1.02,0.01
		c0.081-0.018,0.172-0.036,0.3-0.061c0.825-0.151,1.646-0.147,2.427-0.016v-0.19H76.53c2.959-0.111,5.916-0.219,8.881-0.25
		c4.443-0.044,9.393-0.545,13.864,0.25h9.07V67.767z"/>
	<line x1="74.438" y1="5.713" x2="76.927" y2="5.713"/>
	<line x1="38.331" y1="5.713" x2="40.824" y2="5.713"/>
	<path fill="#489ED8" d="M108.009,12.107H7.251c0.655-1.556,2.195-2.645,3.983-2.645h92.792
		C105.814,9.462,107.352,10.552,108.009,12.107z"/>
	<path fill="#489ED8" d="M7.251,71.516h100.757c-0.657,1.553-2.194,2.646-3.982,2.646H11.235
		C9.446,74.161,7.907,73.068,7.251,71.516z"/>
	<line fill="#DB8A6D" x1="40.824" y1="5.713" x2="38.331" y2="5.713"/>
	<line fill="#DB8A6D" x1="76.927" y1="5.713" x2="74.438" y2="5.713"/>
	<polygon fill="#489ED8" points="72.668,77.91 75.652,81.122 39.605,81.122 42.593,77.91 	"/>
</g>
<rect x="7" y="15" fill="#E8F9FC" width="101" height="52"/>
<g>
	<g>
		<path fill="#464E72" d="M75.316,38.909c0.404,0,0.733,0.328,0.733,0.733c0,0.404-0.329,0.732-0.733,0.732h-4.109
			c-0.406,0-0.734-0.328-0.734-0.732c0-0.405,0.328-0.733,0.734-0.733H75.316z"/>
		<path fill="#464E72" d="M73.583,30.432c0.202,0.35,0.081,0.797-0.269,1.004l-3.558,2.053c-0.115,0.065-0.242,0.095-0.367,0.095
			c-0.254,0-0.5-0.13-0.637-0.366c-0.203-0.349-0.081-0.799,0.271-1.001l3.557-2.054C72.931,29.961,73.38,30.081,73.583,30.432z"/>
		<path fill="#464E72" d="M73.314,47.851c0.35,0.204,0.471,0.647,0.269,1.001c-0.138,0.236-0.383,0.368-0.637,0.368
			c-0.124,0-0.25-0.031-0.366-0.099l-3.557-2.055c-0.352-0.201-0.474-0.65-0.271-1.001c0.203-0.351,0.653-0.472,1.004-0.269
			L73.314,47.851z"/>
		<path fill="#464E72" d="M69.079,39.513c0,2.52-0.803,4.91-2.322,6.913c-2.562,3.378-3.901,7.328-3.901,11.416v4.429
			c0,1.963-1.598,3.561-3.562,3.561h-3.312c-1.963,0-3.562-1.598-3.562-3.561v-4.429c0-4.046-1.388-8.093-3.903-11.4
			c-1.551-2.036-2.358-4.468-2.334-7.035c0.026-2.994,1.213-5.818,3.341-7.958c2.126-2.138,4.949-3.338,7.941-3.382
			c3.089-0.044,6.003,1.126,8.202,3.296C67.867,33.531,69.079,36.426,69.079,39.513z M65.587,45.536
			c1.324-1.744,2.024-3.827,2.024-6.023c0-2.69-1.058-5.215-2.974-7.107c-1.917-1.891-4.457-2.91-7.15-2.874
			c-5.376,0.077-9.79,4.512-9.838,9.887c-0.021,2.239,0.684,4.36,2.034,6.134c2.655,3.483,4.142,7.74,4.202,12.014h7.49
			C61.434,53.252,62.888,49.098,65.587,45.536z M61.387,62.271v-0.233l-7.5-0.858v0.593l7.468,0.856
			C61.376,62.513,61.387,62.392,61.387,62.271z M61.387,60.561v-1.525h-7.5V59.7L61.387,60.561z M60.467,64.004l-6.32-0.725
			c0.358,0.647,1.046,1.085,1.834,1.085h3.312C59.729,64.364,60.13,64.229,60.467,64.004z"/>
		<path fill="#464E72" d="M66.84,23.688c0.351,0.203,0.473,0.653,0.27,1.003l-2.055,3.556c-0.135,0.239-0.381,0.369-0.636,0.369
			c-0.124,0-0.251-0.032-0.366-0.097c-0.353-0.203-0.472-0.652-0.27-1.005l2.055-3.557C66.04,23.607,66.489,23.485,66.84,23.688z"/>
		<path fill="#464E72" d="M66.436,39.513c0,0.276-0.012,0.553-0.036,0.823c-0.035,0.383-0.354,0.667-0.729,0.667
			c-0.022,0-0.045-0.002-0.069-0.003c-0.403-0.038-0.701-0.393-0.663-0.798c0.021-0.226,0.031-0.459,0.031-0.689
			c0-4.046-3.293-7.337-7.338-7.337c-0.405,0-0.733-0.329-0.733-0.735c0-0.402,0.328-0.731,0.733-0.731
			C62.486,30.709,66.436,34.66,66.436,39.513z"/>
		<path fill="#464E72" d="M65.341,42.025c0.373,0.16,0.545,0.594,0.384,0.965c-0.278,0.649-0.64,1.265-1.071,1.837
			c-0.145,0.19-0.363,0.291-0.587,0.291c-0.153,0-0.311-0.049-0.443-0.148c-0.321-0.246-0.386-0.706-0.14-1.031
			c0.361-0.475,0.661-0.99,0.894-1.531C64.538,42.039,64.971,41.866,65.341,42.025z"/>
		<path fill="#489ED8" d="M61.387,62.037v0.233c0,0.121-0.011,0.242-0.032,0.357l-7.468-0.856v-0.593L61.387,62.037z"/>
		<polygon fill="#489ED8" points="61.387,59.035 61.387,60.561 53.887,59.7 53.887,59.035 		"/>
		<path fill="#489ED8" d="M54.147,63.279l6.32,0.725c-0.336,0.226-0.738,0.36-1.173,0.36h-3.312
			C55.193,64.364,54.505,63.927,54.147,63.279z"/>
		<path fill="#464E72" d="M58.366,21.957v4.109c0,0.405-0.331,0.734-0.735,0.734c-0.406,0-0.733-0.329-0.733-0.734v-4.109
			c0-0.406,0.327-0.736,0.733-0.736C58.035,21.221,58.366,21.551,58.366,21.957z"/>
		<path fill="#464E72" d="M55.389,50.802c0.126,0.385-0.083,0.798-0.469,0.926c-0.074,0.024-0.151,0.04-0.228,0.04
			c-0.308,0-0.597-0.2-0.697-0.506c-0.762-2.321-1.898-4.479-3.377-6.42c-0.311-0.409-0.589-0.849-0.823-1.298
			c-0.186-0.362-0.044-0.804,0.316-0.993c0.36-0.185,0.804-0.042,0.989,0.316c0.194,0.377,0.426,0.743,0.688,1.085
			C53.365,46.023,54.576,48.327,55.389,50.802z"/>
		<path fill="#464E72" d="M51.477,27.514c0.203,0.353,0.083,0.802-0.269,1.005c-0.115,0.065-0.24,0.097-0.367,0.097
			c-0.252,0-0.5-0.13-0.636-0.369l-2.053-3.556c-0.203-0.351-0.082-0.8,0.269-1.003c0.351-0.204,0.8-0.082,1.003,0.269
			L51.477,27.514z"/>
		<path fill="#464E72" d="M50.373,40.617c0.06,0.403-0.216,0.774-0.617,0.833c-0.037,0.007-0.074,0.011-0.109,0.011
			c-0.358,0-0.671-0.263-0.724-0.626c-0.069-0.461-0.102-0.934-0.097-1.404c0.002-0.406,0.338-0.729,0.739-0.726
			c0.406,0.002,0.731,0.336,0.728,0.741C50.289,39.84,50.316,40.233,50.373,40.617z"/>
		<path fill="#464E72" d="M46.239,32.217c0.35,0.202,0.471,0.652,0.269,1.001c-0.137,0.235-0.383,0.366-0.637,0.366
			c-0.124,0-0.25-0.03-0.366-0.095l-3.557-2.053c-0.353-0.207-0.471-0.654-0.271-1.004c0.203-0.352,0.652-0.471,1.003-0.269
			L46.239,32.217z"/>
		<path fill="#464E72" d="M46.507,46.064c0.203,0.352,0.081,0.8-0.269,1.001L42.68,49.12c-0.115,0.068-0.241,0.099-0.367,0.099
			c-0.253,0-0.5-0.132-0.636-0.368c-0.201-0.354-0.082-0.797,0.271-1.001l3.557-2.055C45.856,45.592,46.305,45.713,46.507,46.064z"
			/>
		<path fill="#464E72" d="M44.054,38.909c0.405,0,0.732,0.328,0.732,0.733c0,0.404-0.328,0.732-0.732,0.732h-4.109
			c-0.406,0-0.735-0.328-0.735-0.732c0-0.405,0.329-0.733,0.735-0.733H44.054z"/>
	</g>
	<circle fill="#FCF56B" stroke="#464E72" stroke-miterlimit="10" cx="57.808" cy="39.743" r="3.903"/>
</g>
</svg>
