<?xml version="1.0" encoding="utf-8"?>
<!-- Generator: Adobe Illustrator 16.0.0, SVG Export Plug-In . SVG Version: 6.00 Build 0)  -->
<!DOCTYPE svg PUBLIC "-//W3C//DTD SVG 1.1//EN" "http://www.w3.org/Graphics/SVG/1.1/DTD/svg11.dtd">
<svg version="1.1" id="Layer_1" xmlns="http://www.w3.org/2000/svg" xmlns:xlink="http://www.w3.org/1999/xlink" x="0px" y="0px"
	 width="120px" height="110px" viewBox="0 0 120 110" enable-background="new 0 0 120 110" xml:space="preserve">
<g id="pay-icon">
	<path fill="#DFDEE4" d="M85.333,107.894H18.572c-2.275,0-4.12-3.539-4.12-7.901V17.896c0-4.365,1.845-7.905,4.12-7.905h66.761
		c2.275,0,4.119,3.54,4.119,7.905v82.096C89.452,104.354,87.608,107.894,85.333,107.894z"/>
	<g>
		<g>
			<g>
				<g>
					<g>
						
							<path fill="#489ED8" stroke="#464E72" stroke-width="3" stroke-linecap="round" stroke-linejoin="round" stroke-miterlimit="10" d="
							M73.831,101.538H9.529c-3.732,0-6.757-3.024-6.757-6.757V10.243c0-3.731,3.024-6.757,6.757-6.757h64.302
							c3.731,0,6.757,3.025,6.757,6.757v84.538C80.588,98.514,77.562,101.538,73.831,101.538z"/>
						
							<path fill="#E8F9FC" stroke="#464E72" stroke-width="2" stroke-linecap="round" stroke-linejoin="round" stroke-miterlimit="10" d="
							M9.714,83.232V12.974c0-1.522,1.233-2.757,2.756-2.757h58.42c1.522,0,2.757,1.234,2.757,2.757v70.259
							c0,1.522-1.234,2.757-2.757,2.757H12.471C10.947,85.989,9.714,84.755,9.714,83.232z"/>
					</g>
					
						<circle fill="#F9FDFC" stroke="#464E72" stroke-width="2" stroke-linecap="round" stroke-linejoin="round" stroke-miterlimit="10" cx="41.68" cy="93.611" r="3.433"/>
				</g>
				<g>
					<text transform="matrix(1 0 0 1 37.2842 75.668)" fill="#464E72" font-family="'BPreplay'" font-size="21.8701">$</text>
					<g>
						<g>
							
								<line fill="none" stroke="#464E72" stroke-width="2" stroke-linecap="round" stroke-linejoin="round" stroke-miterlimit="10" x1="21.22" y1="33.666" x2="62.14" y2="33.666"/>
							
								<line fill="none" stroke="#464E72" stroke-width="2" stroke-linecap="round" stroke-linejoin="round" stroke-miterlimit="10" x1="21.22" y1="41.366" x2="62.14" y2="41.366"/>
							
								<line fill="none" stroke="#464E72" stroke-width="2" stroke-linecap="round" stroke-linejoin="round" stroke-miterlimit="10" x1="21.22" y1="49.065" x2="62.14" y2="49.065"/>
						</g>
						
							<rect x="21.22" y="20.753" fill="#56F1B7" stroke="#464E72" stroke-width="2" stroke-linecap="round" stroke-linejoin="round" stroke-miterlimit="10" width="40.92" height="4.705"/>
					</g>
				</g>
			</g>
		</g>
	</g>
	<g>
		<g>
			
				<path fill="#F9FDFC" stroke="#464E72" stroke-width="3" stroke-linecap="round" stroke-linejoin="round" stroke-miterlimit="10" d="
				M113.979,74.376H56.673c-2.675,0-4.843-2.168-4.843-4.842V31.946c0-2.674,2.168-4.842,4.843-4.842h57.306
				c2.674,0,4.843,2.168,4.843,4.842v37.588C118.821,72.208,116.652,74.376,113.979,74.376z"/>
			<g>
				
					<rect x="51.83" y="35.819" fill="#464E72" stroke="#464E72" stroke-width="2" stroke-linecap="round" stroke-linejoin="round" stroke-miterlimit="10" width="66.991" height="6.447"/>
				<g>
					
						<rect x="59.384" y="62.411" fill="#56F1B7" stroke="#464E72" stroke-width="2" stroke-linecap="round" stroke-linejoin="round" stroke-miterlimit="10" width="39.186" height="3.491"/>
					
						<rect x="59.384" y="54.705" fill="#56F1B7" stroke="#464E72" stroke-width="2" stroke-linecap="round" stroke-linejoin="round" stroke-miterlimit="10" width="27.675" height="3.491"/>
				</g>
			</g>
		</g>
	</g>
</g>
</svg>
