<?xml version="1.0" encoding="utf-8"?>
<!-- Generator: Adobe Illustrator 16.0.0, SVG Export Plug-In . SVG Version: 6.00 Build 0)  -->
<!DOCTYPE svg PUBLIC "-//W3C//DTD SVG 1.1//EN" "http://www.w3.org/Graphics/SVG/1.1/DTD/svg11.dtd">
<svg version="1.1" id="Layer_1" xmlns="http://www.w3.org/2000/svg" xmlns:xlink="http://www.w3.org/1999/xlink" x="0px" y="0px"
	 width="66px" height="25px" viewBox="0 0 66 25" enable-background="new 0 0 66 25" xml:space="preserve">
<g>
	<path d="M12.958,9.722c0.711,0.834,1.066,1.968,1.066,3.403v6.322h-3.781V13.61c0-0.633-0.165-1.128-0.495-1.483
		c-0.33-0.355-0.772-0.533-1.328-0.533c-0.569,0-1.021,0.184-1.357,0.552c-0.336,0.369-0.504,0.875-0.504,1.522v5.779h-3.82V8.568
		h3.82v1.823C6.87,9.81,7.322,9.344,7.917,8.995s1.293-0.523,2.095-0.523C11.265,8.472,12.248,8.888,12.958,9.722z"/>
	<path d="M26.261,8.568v10.879H22.46v-1.822c-0.31,0.581-0.763,1.047-1.357,1.396s-1.293,0.524-2.094,0.524
		c-1.254,0-2.24-0.418-2.958-1.252c-0.717-0.834-1.076-1.975-1.076-3.422V8.568h3.801v5.837c0,0.62,0.165,1.108,0.495,1.464
		s0.772,0.533,1.329,0.533c0.568,0,1.021-0.181,1.357-0.543c0.336-0.361,0.504-0.872,0.504-1.531v-5.76H26.261z"/>
	<path d="M30.954,16.287h4.771v3.16h-8.959v-3.006l4.421-4.712h-4.344V8.568h8.688v2.986L30.954,16.287z"/>
	<path fill="#2F95D3" d="M40.029,5.097v14.35h-3.82V5.097H40.029z"/>
	<path fill="#2F95D3" d="M51.529,14.696h-7.195c0.064,1.229,0.602,1.843,1.609,1.843c0.375,0,0.686-0.091,0.932-0.271
		c0.245-0.182,0.414-0.42,0.504-0.719h4.033c-0.143,0.764-0.459,1.452-0.949,2.066c-0.492,0.613-1.113,1.096-1.862,1.444
		c-0.75,0.349-1.571,0.523-2.462,0.523c-1.087,0-2.047-0.224-2.881-0.669c-0.834-0.446-1.482-1.092-1.948-1.939
		c-0.466-0.846-0.698-1.839-0.698-2.977c0-1.137,0.232-2.126,0.698-2.967s1.118-1.483,1.958-1.93
		c0.841-0.446,1.797-0.669,2.871-0.669c1.086,0,2.042,0.22,2.869,0.659c0.827,0.44,1.471,1.067,1.93,1.881s0.688,1.758,0.688,2.832
		C51.626,14.076,51.594,14.373,51.529,14.696z M47.301,11.846c-0.31-0.284-0.697-0.427-1.162-0.427
		c-0.505,0-0.916,0.143-1.232,0.427c-0.316,0.285-0.501,0.705-0.553,1.26h3.395C47.76,12.55,47.611,12.13,47.301,11.846z"/>
	<path fill="#2F95D3" d="M58.199,8.927c0.556,0.33,0.97,0.785,1.241,1.367V5.097h3.82v14.35h-3.82v-1.727
		c-0.271,0.582-0.686,1.038-1.241,1.367c-0.557,0.33-1.215,0.495-1.979,0.495c-0.865,0-1.648-0.224-2.346-0.669
		c-0.698-0.446-1.248-1.092-1.648-1.939c-0.4-0.846-0.602-1.839-0.602-2.977c0-1.137,0.201-2.126,0.602-2.967s0.95-1.483,1.648-1.93
		c0.697-0.446,1.48-0.669,2.346-0.669C56.984,8.433,57.643,8.598,58.199,8.927z M56.037,12.359c-0.369,0.395-0.553,0.94-0.553,1.639
		c0,0.711,0.184,1.264,0.553,1.658c0.368,0.395,0.85,0.592,1.445,0.592c0.568,0,1.04-0.201,1.415-0.602
		c0.374-0.4,0.562-0.95,0.562-1.648c0-0.686-0.188-1.228-0.562-1.629c-0.375-0.4-0.847-0.601-1.415-0.601
		C56.887,11.768,56.405,11.965,56.037,12.359z"/>
</g>
</svg>
